<?xml version="1.0" encoding="utf-8"?>
<!-- Generator: Adobe Illustrator 23.0.1, SVG Export Plug-In . SVG Version: 6.00 Build 0)  -->
<svg version="1.1" id="Layer_1" xmlns="http://www.w3.org/2000/svg" xmlns:xlink="http://www.w3.org/1999/xlink" x="0px" y="0px"
	 viewBox="0 0 322 97" style="enable-background:new 0 0 322 97;" xml:space="preserve">
<style type="text/css">
	.st0{fill:#65B19F;}
	.st1{fill:#F9E4CD;}
</style>
<g>
	<rect x="23.22" y="1.01" class="st0" width="276.86" height="94.99"/>
</g>
<g>
	<rect x="16.82" y="9.23" class="st0" width="289.54" height="78.63"/>
</g>
<g>
	<circle class="st0" cx="26.54" cy="48.59" r="25.45"/>
</g>
<g>
	<circle class="st0" cx="295.93" cy="48.59" r="25.45"/>
</g>
<g>
	<g>
		<rect x="23.8" y="15.95" class="st0" width="275.57" height="65.19"/>
	</g>
	<g>
		<path class="st1" d="M298.66,16.58v63.93H24.52V16.58H298.66 M300.09,15.32h-1.43H24.52h-1.43v1.26v63.93v1.26h1.43h274.14h1.43
			v-1.26V16.58V15.32L300.09,15.32z"/>
	</g>
</g>
<g>
	<g>
		<path class="st0" d="M26.54,68.3c-5.27,0-10.22-2.05-13.94-5.77c-3.72-3.72-5.77-8.68-5.77-13.94s2.05-10.22,5.77-13.94
			c3.72-3.72,8.68-5.77,13.94-5.77s10.22,2.05,13.94,5.77c3.72,3.72,5.77,8.68,5.77,13.94S44.2,58.8,40.48,62.53
			C36.76,66.25,31.8,68.3,26.54,68.3z"/>
	</g>
	<g>
		<path class="st1" d="M26.54,29.5c10.54,0,19.08,8.54,19.08,19.08c0,10.54-8.54,19.08-19.08,19.08S7.45,59.13,7.45,48.59
			C7.45,38.05,16,29.5,26.54,29.5 M26.54,28.24c-2.75,0-5.41,0.54-7.92,1.6c-2.42,1.02-4.6,2.49-6.47,4.36
			c-1.87,1.87-3.34,4.04-4.36,6.47c-1.06,2.51-1.6,5.17-1.6,7.92s0.54,5.41,1.6,7.92c1.02,2.42,2.49,4.6,4.36,6.47
			s4.04,3.34,6.47,4.36c2.51,1.06,5.17,1.6,7.92,1.6s5.41-0.54,7.92-1.6c2.42-1.02,4.6-2.49,6.47-4.36s3.34-4.04,4.36-6.47
			c1.06-2.51,1.6-5.17,1.6-7.92s-0.54-5.41-1.6-7.92c-1.02-2.42-2.49-4.6-4.36-6.47c-1.87-1.87-4.04-3.34-6.47-4.36
			C31.95,28.78,29.28,28.24,26.54,28.24L26.54,28.24z"/>
	</g>
</g>
<g>
	<circle class="st0" cx="295.93" cy="48.59" r="19.08"/>
	<path class="st1" d="M295.93,68.3c-5.27,0-10.22-2.05-13.94-5.77c-3.72-3.72-5.77-8.68-5.77-13.94s2.05-10.22,5.77-13.94
		c3.72-3.72,8.68-5.77,13.94-5.77s10.22,2.05,13.94,5.77c3.72,3.72,5.77,8.68,5.77,13.94s-2.05,10.22-5.77,13.94
		C306.14,66.25,301.19,68.3,295.93,68.3z M295.93,30.13c-4.93,0-9.56,1.92-13.05,5.4s-5.4,8.12-5.4,13.05s1.92,9.56,5.4,13.05
		c3.49,3.49,8.12,5.4,13.05,5.4c4.93,0,9.56-1.92,13.05-5.4c3.49-3.49,5.4-8.12,5.4-13.05s-1.92-9.56-5.4-13.05
		C305.49,32.05,300.86,30.13,295.93,30.13z"/>
</g>
<g>
	<rect x="30.97" y="8.13" class="st0" width="261.35" height="80.76"/>
	<path class="st1" d="M293.04,89.52H30.25V7.49h262.79V89.52z M31.69,88.26H291.6V8.76H31.69V88.26z"/>
</g>
<g>
	<rect x="24.52" y="16.58" class="st0" width="274.14" height="63.93"/>
</g>
<g>
	<rect x="24.52" y="16.58" class="st0" width="274.14" height="63.93"/>
</g>
</svg>
